<svg width="42" height="39" fill="none" xmlns="http://www.w3.org/2000/svg"><path d="M40.166.8c-1.895-1.046-4.01.97-5.248 2.164-2.843 2.835-5.249 6.12-7.946 9.104-2.989 3.284-5.759 6.568-8.82 9.777-1.75 1.791-3.645 3.732-4.811 5.97-2.624-2.612-4.884-5.448-7.8-7.761-2.114-1.642-5.613-2.836-5.54 1.12.146 5.149 4.592 10.672 7.873 14.179 1.385 1.493 3.207 3.06 5.321 3.134 2.551.15 5.175-2.985 6.706-4.701 2.698-2.985 4.884-6.344 7.363-9.404 3.207-4.03 6.487-7.985 9.622-12.09C38.854 9.755 45.05 3.486 40.166.8ZM3.208 20.874c-.073 0-.145 0-.291.074a3.492 3.492 0 0 1-.802-.298c.219-.15.583-.075 1.093.224Z" fill="#DBFAC4"/></svg>